<?xml version="1.0" encoding="UTF-8"?>
<svg version="1.1" xmlns="http://www.w3.org/2000/svg" width="213" height="116">
<path d="M0 0 C70.29 0 140.58 0 213 0 C213 38.28 213 76.56 213 116 C142.71 116 72.42 116 0 116 C0 77.72 0 39.44 0 0 Z " fill="#FCFCFB" transform="translate(0,0)"/>
<path d="M0 0 C4.40802625 2.16394016 7.23139226 4.38196867 9 9 C9.55314235 14.82116478 9.44353137 19.62617801 7 25 C6.34 25 5.68 25 5 25 C4.67 25.99 4.34 26.98 4 28 C-1.50008598 29.83336199 -8.67081783 30.36975577 -14.1171875 28.12890625 C-18.03506458 25.15638757 -19.29230866 21.71794228 -20 17 C-20.13343781 12.22125827 -19.71026173 8.38759972 -16.6875 4.5625 C-11.55395277 -0.33227759 -6.92104676 -0.88563158 0 0 Z " fill="#18435C" transform="translate(147,55)"/>
<path d="M0 0 C4.24276154 3.56126902 8.3139073 7.19701613 12.20703125 11.14453125 C13.12291016 12.06814453 14.03878906 12.99175781 14.98242188 13.94335938 C15.92607569 14.89944906 16.86943204 15.85583243 17.8125 16.8125 C19.69114744 18.71773656 21.57305969 20.61953725 23.45703125 22.51953125 C24.28178955 23.35589111 25.10654785 24.19225098 25.95629883 25.05395508 C27.84921038 27.0466549 27.84921038 27.0466549 30 28 C29.505 29.485 29.505 29.485 29 31 C22.81865131 25.89551178 17.20177122 20.31705058 11.5625 14.625 C10.64017578 13.69816406 9.71785156 12.77132813 8.76757812 11.81640625 C6.50941375 9.54654154 4.25363058 7.27436462 2 5 C-4.01918863 7.91455449 -7.98899213 11.99791749 -12.28515625 17.02734375 C-14.41551066 19.47797923 -16.66977069 21.7403837 -19 24 C-18.67 24.33 -18.34 24.66 -18 25 C-17.91126468 28.10230144 -17.88474313 31.18287359 -17.90234375 34.28515625 C-17.90335083 35.1097937 -17.90435791 35.93443115 -17.90539551 36.78405762 C-17.91064408 39.87688581 -17.92460523 42.96969424 -17.9375 46.0625 C-17.958125 52.971875 -17.97875 59.88125 -18 67 C-1.5 67 15 67 32 67 C32 67.99 32 68.98 32 70 C11.54 70 -8.92 70 -30 70 C-30 69.01 -30 68.02 -30 67 C-27.03 67 -24.06 67 -21 67 C-21.33 53.8 -21.66 40.6 -22 27 C-23.65 28.32 -25.3 29.64 -27 31 C-27 27 -27 27 -24.52148438 24.06738281 C-23.38911984 22.93565117 -22.24575418 21.81485893 -21.09375 20.703125 C-20.49445679 20.10949158 -19.89516357 19.51585815 -19.27770996 18.90423584 C-17.36098435 17.00990509 -15.43082331 15.12994902 -13.5 13.25 C-12.1983097 11.96837055 -10.89751671 10.68582904 -9.59765625 9.40234375 C-6.40875422 6.2575504 -3.20773194 3.12557963 0 0 Z " fill="#696C42" transform="translate(35,15)"/>
<path d="M0 0 C2.73704828 1.74175799 4.7774546 3.17051755 6.75 5.75 C7 8.5 7 8.5 6.75 10.75 C4.11 10.75 1.47 10.75 -1.25 10.75 C-1.91 9.1 -2.57 7.45 -3.25 5.75 C-6.18443402 6.01656572 -6.18443402 6.01656572 -9.25 6.75 C-11.71751239 10.45126859 -11.55721156 12.37223532 -11.25 16.75 C-10.36935073 19.10369807 -10.36935073 19.10369807 -9.25 20.75 C-6.87625139 21.08425735 -6.87625139 21.08425735 -4.25 20.75 C-3.816875 20.09 -3.38375 19.43 -2.9375 18.75 C-1.25 16.75 -1.25 16.75 0.7109375 16.484375 C2.72585501 16.49851477 4.73935106 16.61815417 6.75 16.75 C6.56819999 20.65870012 5.93464108 22.51406973 3.5 25.625 C-0.58478532 28.69604297 -5.21308709 28.31061612 -10.12890625 28.31640625 C-13.90562106 27.63101996 -15.5490758 26.44143062 -18.25 23.75 C-21.4669547 19.05129647 -20.84024834 13.19340138 -20.25 7.75 C-16.12516423 -0.95798662 -8.80576442 -3.38683247 0 0 Z " fill="#15405A" transform="translate(118.25,56.25)"/>
<path d="M0 0 C6.6 0 13.2 0 20 0 C20 2.31 20 4.62 20 7 C16.04 7 12.08 7 8 7 C8 8.65 8 10.3 8 12 C11.63 12 15.26 12 19 12 C19 13.98 19 15.96 19 18 C15.37 18 11.74 18 8 18 C8 19.65 8 21.3 8 23 C11.96 23 15.92 23 20 23 C20 24.98 20 26.96 20 29 C13.4 29 6.8 29 0 29 C0 19.43 0 9.86 0 0 Z " fill="#18425C" transform="translate(182,55)"/>
<path d="M0 0 C2.97 0 5.94 0 9 0 C9 7.59 9 15.18 9 23 C12.63 23 16.26 23 20 23 C20 24.98 20 26.96 20 29 C13.4 29 6.8 29 0 29 C0 19.43 0 9.86 0 0 Z " fill="#18425C" transform="translate(159,55)"/>
<path d="M0 0 C0 1.98 0 3.96 0 6 C-3.3 6 -6.6 6 -10 6 C-10 7.65 -10 9.3 -10 11 C-6.37 11 -2.74 11 1 11 C1 12.98 1 14.96 1 17 C-5.6 17 -12.2 17 -19 17 C-19.72061767 6.07063197 -19.72061767 6.07063197 -16.8125 1.75 C-11.97727235 -1.42275229 -5.50743025 -0.36770677 0 0 Z " fill="#15405A" transform="translate(93,67)"/>
<path d="M0 0 C0.33 0 0.66 0 1 0 C1 13.86 1 27.72 1 42 C17.5 42 34 42 51 42 C51 42.99 51 43.98 51 45 C30.54 45 10.08 45 -11 45 C-11 44.01 -11 43.02 -11 42 C-7.37 42 -3.74 42 0 42 C0 28.14 0 14.28 0 0 Z " fill="#B3A465" transform="translate(16,40)"/>
<path d="M0 0 C4.95 0 9.9 0 15 0 C15 4.95 15 9.9 15 15 C10.05 15 5.1 15 0 15 C0 10.05 0 5.1 0 0 Z " fill="#CFC087" transform="translate(29,32)"/>
<path d="M0 0 C0.66 1.65 1.32 3.3 2 5 C7.445 4.505 7.445 4.505 13 4 C13 6.97 13 9.94 13 13 C12.01 13.33 11.02 13.66 10 14 C10 13.01 10 12.02 10 11 C7.36 11 4.72 11 2 11 C1.690625 11.639375 1.38125 12.27875 1.0625 12.9375 C0 15 0 15 -1 16 C-3.375 16.375 -3.375 16.375 -6 16 C-8.50553676 13.14887196 -8.97730838 11.21557035 -9.375 7.4375 C-8.65672632 0.85332459 -6.49348663 -0.57719881 0 0 Z " fill="#F1F2F4" transform="translate(115,62)"/>
<path d="M0 0 C0.33 0 0.66 0 1 0 C1.83483657 8.997683 0.78583947 14.92977756 -5 22 C-8.77865526 25.90387385 -13.02476257 29.72560575 -18 32 C-18.99 31.67 -19.98 31.34 -21 31 C-20.60167969 30.59910156 -20.20335938 30.19820312 -19.79296875 29.78515625 C-15.54538267 25.22752739 -13.55293177 21.00739397 -12 15 C-13.65 15.66 -15.3 16.32 -17 17 C-16.43314132 13.71221965 -15.63100206 12.07466682 -13 10 C-10.58984375 9.55859375 -10.58984375 9.55859375 -7.9375 9.4375 C-3.99499171 9.38197684 -3.99499171 9.38197684 -1 7 C-0.59952556 4.67724823 -0.2602896 2.34260643 0 0 Z " fill="#1C4360" transform="translate(89,37)"/>
<path d="M0 0 C2.15625 0.53125 2.15625 0.53125 3.92578125 2.171875 C5.50960443 5.2087931 5.45483219 7.37472939 5.34375 10.78125 C5.31667969 11.85890625 5.28960937 12.9365625 5.26171875 14.046875 C5.22691406 14.86671875 5.19210938 15.6865625 5.15625 16.53125 C3.21789034 16.47114582 1.28040509 16.38233283 -0.65625 16.28125 C-1.73519531 16.23484375 -2.81414062 16.1884375 -3.92578125 16.140625 C-6.84375 15.53125 -6.84375 15.53125 -8.70703125 13.703125 C-10.38039412 10.50590934 -10.22402759 8.0805075 -9.84375 4.53125 C-7.98381598 -0.30457845 -4.61538811 0.06153851 0 0 Z " fill="#AB8B21" transform="translate(169.84375,89.46875)"/>
<path d="M0 0 C1.94140625 0.37890625 1.94140625 0.37890625 4.44140625 1.94140625 C6.52533443 5.32778954 6.49942722 7.47275943 5.94140625 11.37890625 C4.44140625 13.81640625 4.44140625 13.81640625 1.94140625 15.37890625 C-1.02283998 15.95744123 -2.95951542 15.77244001 -6.05859375 15.37890625 C-8.05859375 13.81640625 -8.05859375 13.81640625 -9.05859375 11.37890625 C-9.44327369 7.78856012 -9.43357876 5.29293221 -8.05859375 1.94140625 C-5.45896059 -0.08955716 -3.24577424 -0.18530203 0 0 Z " fill="#AD8D23" transform="translate(48.05859375,89.62109375)"/>
<path d="M0 0 C1.65 0 3.3 0 5 0 C7.3125 3 7.3125 3 9 6 C9.33 4.02 9.66 2.04 10 0 C11.32 0 12.64 0 14 0 C14 4.95 14 9.9 14 15 C9 14 9 14 7.1875 11.9375 C6.795625 11.298125 6.40375 10.65875 6 10 C5.67 11.65 5.34 13.3 5 15 C3.35 15 1.7 15 0 15 C0 10.05 0 5.1 0 0 Z " fill="#AB8B22" transform="translate(138,90)"/>
<path d="M0 0 C9.625 -0.25 9.625 -0.25 13 2 C13.40373601 5.16259871 13.54458662 7.14012639 11.8125 9.875 C9.43963721 11.34781139 7.74086056 11.22223194 5 11 C5 12.32 5 13.64 5 15 C3.35 15 1.7 15 0 15 C0 10.05 0 5.1 0 0 Z " fill="#B49738" transform="translate(25,90)"/>
<path d="M0 0 C1.65 0 3.3 0 5 0 C5 1.98 5 3.96 5 6 C6.65 6 8.3 6 10 6 C10 4.02 10 2.04 10 0 C11.32 0 12.64 0 14 0 C14 4.95 14 9.9 14 15 C12.68 15 11.36 15 10 15 C10 13.02 10 11.04 10 9 C8.35 9 6.7 9 5 9 C5 10.98 5 12.96 5 15 C3.35 15 1.7 15 0 15 C0 10.05 0 5.1 0 0 Z " fill="#AD8E25" transform="translate(122,90)"/>
<path d="M0 0 C2.96768263 0.51934446 3.6904997 1.0748096 5.5 3.4375 C5.8984375 5.8125 5.8984375 5.8125 5.875 8.4375 C5.88273438 9.30375 5.89046875 10.17 5.8984375 11.0625 C5.5 13.4375 5.5 13.4375 4.16796875 15.25390625 C2.5 16.4375 2.5 16.4375 -0.5625 16.375 C-3.5 15.4375 -3.5 15.4375 -4.875 13.8125 C-5.98253865 9.60385314 -6.24538202 5.96749467 -4.3125 2 C-2.5 0.4375 -2.5 0.4375 0 0 Z " fill="#F8F9F9" transform="translate(141.5,61.5625)"/>
<path d="M0 0 C1.32 0 2.64 0 4 0 C4.99 3.3 5.98 6.6 7 10 C9.09782787 7.90217213 9.6509396 6.6200793 10.625 3.875 C10.88539062 3.15054688 11.14578125 2.42609375 11.4140625 1.6796875 C11.70410156 0.84824219 11.70410156 0.84824219 12 0 C12.99 0 13.98 0 15 0 C15.8320582 5.72040011 16.12036664 11.22240116 16 17 C15.34 17 14.68 17 14 17 C13.67 14.36 13.34 11.72 13 9 C10.84622436 11.62198774 9.59927826 13.64404172 9 17 C8.01 17 7.02 17 6 17 C5.01 13.37 4.02 9.74 3 6 C2.67 9.63 2.34 13.26 2 17 C1.34 17 0.68 17 0 17 C0 11.39 0 5.78 0 0 Z " fill="#385B71" transform="translate(23,55)"/>
<path d="M0 0 C3.63 0 7.26 0 11 0 C11 1.32 11 2.64 11 4 C9.02 4 7.04 4 5 4 C5 4.66 5 5.32 5 6 C6.98 6 8.96 6 11 6 C11 6.99 11 7.98 11 9 C9.02 9 7.04 9 5 9 C5 9.99 5 10.98 5 12 C6.98 12 8.96 12 11 12 C11 12.99 11 13.98 11 15 C7.37 15 3.74 15 0 15 C0 10.05 0 5.1 0 0 Z " fill="#AD8E28" transform="translate(192,90)"/>
<path d="M0 0 C1.875 0.328125 1.875 0.328125 3.875 1.640625 C4.875 3.328125 4.875 3.328125 4.875 6.328125 C3.555 6.328125 2.235 6.328125 0.875 6.328125 C0.545 5.668125 0.215 5.008125 -0.125 4.328125 C-1.115 4.328125 -2.105 4.328125 -3.125 4.328125 C-3.125 6.638125 -3.125 8.948125 -3.125 11.328125 C-2.135 11.328125 -1.145 11.328125 -0.125 11.328125 C0.205 10.668125 0.535 10.008125 0.875 9.328125 C2.195 9.328125 3.515 9.328125 4.875 9.328125 C4.5 11.765625 4.5 11.765625 3.875 14.328125 C0.67138709 15.92993146 -2.65844776 15.95196262 -6.125 15.328125 C-8.63389636 12.66242262 -9.05812866 10.87424098 -9.5 7.265625 C-8.68848824 0.90878286 -6.00120654 -0.30888563 0 0 Z " fill="#AC8C22" transform="translate(115.125,89.671875)"/>
<path d="M0 0 C1.32 0 2.64 0 4 0 C4.33 3.3 4.66 6.6 5 10 C6.32 10.33 7.64 10.66 9 11 C9 7.37 9 3.74 9 0 C10.32 0 11.64 0 13 0 C13.08107583 1.93681161 13.13922475 3.8745934 13.1875 5.8125 C13.22230469 6.89144531 13.25710937 7.97039062 13.29296875 9.08203125 C13 12 13 12 11.70703125 13.86328125 C8.84212318 15.77103468 6.32255852 15.35598841 3 15 C1.29296875 13.86328125 1.29296875 13.86328125 0 12 C-0.29296875 9.08203125 -0.29296875 9.08203125 -0.1875 5.8125 C-0.16042969 4.72582031 -0.13335937 3.63914062 -0.10546875 2.51953125 C-0.07066406 1.68808594 -0.03585938 0.85664062 0 0 Z " fill="#A88719" transform="translate(177,90)"/>
<path d="M0 0 C3.63 0 7.26 0 11 0 C11 1.32 11 2.64 11 4 C8.69 4 6.38 4 4 4 C4 4.66 4 5.32 4 6 C5.98 6 7.96 6 10 6 C10 6.99 10 7.98 10 9 C8.02 9 6.04 9 4 9 C4 9.99 4 10.98 4 12 C5.98 12 7.96 12 10 12 C10 12.99 10 13.98 10 15 C6.7 15 3.4 15 0 15 C0 10.05 0 5.1 0 0 Z " fill="#AB8B20" transform="translate(94,90)"/>
<path d="M0 0 C2.475 0.495 2.475 0.495 5 1 C5.33 2.32 5.66 3.64 6 5 C6.66 5 7.32 5 8 5 C8.33 3.35 8.66 1.7 9 0 C10.65 0 12.3 0 14 0 C13.54625 0.99 13.0925 1.98 12.625 3 C10.93307285 6.92110131 9.94856099 10.84092487 9 15 C7.68 15 6.36 15 5 15 C3.33333333 10 1.66666667 5 0 0 Z " fill="#AB8B1F" transform="translate(65,90)"/>
<path d="M0 0 C3.96 0 7.92 0 12 0 C12 0.99 12 1.98 12 3 C11.01 3 10.02 3 9 3 C9 6.96 9 10.92 9 15 C7.35 15 5.7 15 4 15 C4 11.37 4 7.74 4 4 C2.68 4 1.36 4 0 4 C0 2.68 0 1.36 0 0 Z " fill="#AF902A" transform="translate(80,90)"/>
<path d="M0 0 C6.15257006 5.07523905 11.71672564 10.63533256 17.3125 16.3125 C19.09795449 18.12337021 20.88560159 19.93208208 22.67578125 21.73828125 C23.45864502 22.53274658 24.24150879 23.32721191 25.0480957 24.14575195 C26.86885984 26.05600947 26.86885984 26.05600947 29 27 C28.67 27.99 28.34 28.98 28 30 C21.44622903 24.61359076 15.52753365 18.64114873 9.5625 12.625 C8.53474017 11.59221405 7.50674715 10.55966009 6.47851562 9.52734375 C3.98298402 7.02089713 1.49061918 4.5113292 -1 2 C-0.67 1.34 -0.34 0.68 0 0 Z " fill="#AA8A1E" transform="translate(36,16)"/>
<path d="M0 0 C1.32 0 2.64 0 4 0 C4 3.96 4 7.92 4 12 C5.98 12 7.96 12 10 12 C10 12.99 10 13.98 10 15 C6.7 15 3.4 15 0 15 C0 10.05 0 5.1 0 0 Z " fill="#A88615" transform="translate(56,90)"/>
<path d="M0 0 C2.97 0 5.94 0 9 0 C9 0.66 9 1.32 9 2 C6.69 2 4.38 2 2 2 C2 3.65 2 5.3 2 7 C3.98 7 5.96 7 8 7 C8 7.66 8 8.32 8 9 C6.02 9 4.04 9 2 9 C2 10.98 2 12.96 2 15 C4.31 15 6.62 15 9 15 C9 15.66 9 16.32 9 17 C6.03 17 3.06 17 0 17 C0 11.39 0 5.78 0 0 Z " fill="#15415B" transform="translate(55,55)"/>
<path d="M0 0 C1.051875 0.12375 2.10375 0.2475 3.1875 0.375 C2.4375 7.125 2.4375 7.125 0.1875 9.375 C-2.98530351 8.93737193 -5.86917611 7.60138495 -8.8125 6.375 C-4.75096154 0.46730769 -4.75096154 0.46730769 0 0 Z " fill="#19405D" transform="translate(83.8125,36.625)"/>
<path d="M0 0 C1 2 1 2 1 5 C4.63 5.33 8.26 5.66 12 6 C12 8.31 12 10.62 12 13 C11.67 13 11.34 13 11 13 C11 11.02 11 9.04 11 7 C8.91587093 7.06023494 6.83255565 7.14908321 4.75 7.25 C3.00976562 7.31960937 3.00976562 7.31960937 1.234375 7.390625 C-2.5391629 8.10158142 -3.44654265 9.27194727 -6 12 C-7.32 12 -8.64 12 -10 12 C-10 9 -10 9 -8.3203125 7.24609375 C-7.59585938 6.64925781 -6.87140625 6.05242187 -6.125 5.4375 C-5.04605469 4.53837891 -5.04605469 4.53837891 -3.9453125 3.62109375 C-3.30335937 3.08613281 -2.66140625 2.55117188 -2 2 C-1.34 1.34 -0.68 0.68 0 0 Z " fill="#C5CBCA" transform="translate(82,60)"/>
<path d="M0 0 C2.0625 0.4375 2.0625 0.4375 4 1 C4 1.66 4 2.32 4 3 C5.32 3 6.64 3 8 3 C8.33 2.34 8.66 1.68 9 1 C10 4 10 4 9.0625 6.1875 C8.711875 6.785625 8.36125 7.38375 8 8 C8 7.34 8 6.68 8 6 C6.68 6 5.36 6 4 6 C3.67 6.99 3.34 7.98 3 9 C1.68 8.67 0.36 8.34 -1 8 C-1.04241723 5.66705225 -1.04092937 3.33297433 -1 1 C-0.67 0.67 -0.34 0.34 0 0 Z " fill="#F5F2E6" transform="translate(112,93)"/>
<path d="M0 0 C1.32 0 2.64 0 4 0 C4 4.95 4 9.9 4 15 C2.68 15 1.36 15 0 15 C0 10.05 0 5.1 0 0 Z " fill="#AA891B" transform="translate(154,90)"/>
<path d="M0 0 C1.66611905 -0.042721 3.33382885 -0.04063832 5 0 C5.33 0.33 5.66 0.66 6 1 C5.4 7.6 5.4 7.6 3 10 C4.32 10.33 5.64 10.66 7 11 C7 11.66 7 12.32 7 13 C4.36 13 1.72 13 -1 13 C-1 12.01 -1 11.02 -1 10 C0.33333333 8.66666667 1.66666667 7.33333333 3 6 C3.7872678 3.8618034 3.7872678 3.8618034 4 2 C2.35 2 0.7 2 -1 2 C-0.67 1.34 -0.34 0.68 0 0 Z " fill="#406176" transform="translate(44,59)"/>
<path d="M0 0 C1.98 0 3.96 0 6 0 C6 2.31 6 4.62 6 7 C4.02 7 2.04 7 0 7 C0 4.69 0 2.38 0 0 Z " fill="#A9891E" transform="translate(38,32)"/>
<path d="M0 0 C1.98 0 3.96 0 6 0 C6 2.31 6 4.62 6 7 C4.02 7 2.04 7 0 7 C0 4.69 0 2.38 0 0 Z " fill="#A9891E" transform="translate(30,32)"/>
<path d="M0 0 C1.66611905 -0.042721 3.33382885 -0.04063832 5 0 C6 1 6 1 6.0625 3.5625 C6.041875 4.366875 6.02125 5.17125 6 6 C4.34385343 6.38218767 2.67542976 6.71395102 1 7 C0 6 0 6 -0.0625 2.9375 C-0.041875 1.968125 -0.02125 0.99875 0 0 Z " fill="#F5F2E7" transform="translate(44,94)"/>
<path d="M0 0 C1.65 0 3.3 0 5 0 C5 1.98 5 3.96 5 6 C2.36 6 -0.28 6 -3 6 C-2 4 -1 2 0 0 Z " fill="#143F5A" transform="translate(89,56)"/>
<path d="M0 0 C0.66 0.33 1.32 0.66 2 1 C2.625 3.5625 2.625 3.5625 3 6 C2.34 6 1.68 6 1 6 C1 7.32 1 8.64 1 10 C-0.32 9.67 -1.64 9.34 -3 9 C-2.01 9 -1.02 9 0 9 C0 8.01 0 7.02 0 6 C-1.98 6 -3.96 6 -6 6 C-6 5.01 -6 4.02 -6 3 C-4.02 3 -2.04 3 0 3 C0 2.01 0 1.02 0 0 Z " fill="#F1ECDB" transform="translate(104,96)"/>
<path d="M0 0 C2.0625 0.4375 2.0625 0.4375 4 1 C4.33 2.65 4.66 4.3 5 6 C3.68 6 2.36 6 1 6 C1.33 6.99 1.66 7.98 2 9 C1.01 8.67 0.02 8.34 -1 8 C-1.04241723 5.66705225 -1.04092937 3.33297433 -1 1 C-0.67 0.67 -0.34 0.34 0 0 Z " fill="#F2EEE0" transform="translate(166,93)"/>
<path d="M0 0 C1.98 0 3.96 0 6 0 C6 1.98 6 3.96 6 6 C4.02 6 2.04 6 0 6 C0 4.02 0 2.04 0 0 Z " fill="#A68512" transform="translate(38,40)"/>
<path d="M0 0 C1.98 0 3.96 0 6 0 C6 1.98 6 3.96 6 6 C4.02 6 2.04 6 0 6 C0 4.02 0 2.04 0 0 Z " fill="#A68512" transform="translate(30,40)"/>
<path d="M0 0 C0.33 0 0.66 0 1 0 C1 1.98 1 3.96 1 6 C3.31 6 5.62 6 8 6 C8 6.66 8 7.32 8 8 C5.03 8 2.06 8 -1 8 C-1.04241723 5.66705225 -1.04092937 3.33297433 -1 1 C-0.67 0.67 -0.34 0.34 0 0 Z " fill="#254C64" transform="translate(56,64)"/>
<path d="M0 0 C0.66 0 1.32 0 2 0 C2.3633218 6.41868512 2.3633218 6.41868512 0.75 9 C-1 10 -1 10 -3.1875 9.6875 C-3.785625 9.460625 -4.38375 9.23375 -5 9 C-4.01 8.34 -3.02 7.68 -2 7 C-0.7811879 3.44327821 -0.7811879 3.44327821 0 0 Z " fill="#E8EBED" transform="translate(87,37)"/>
<path d="M0 0 C3.94139078 1.66751148 6.7892812 4.22710649 10 7 C9.67 7.99 9.34 8.98 9 10 C7.86800647 9.0919838 6.74467637 8.17316174 5.625 7.25 C4.99851562 6.73953125 4.37203125 6.2290625 3.7265625 5.703125 C1.91687682 3.91800519 0.99882545 2.32050356 0 0 Z " fill="#AE902A" transform="translate(55,36)"/>
<path d="M0 0 C0.33 0.66 0.66 1.32 1 2 C0.07038578 3.15224028 -0.8690125 4.29659176 -1.8125 5.4375 C-2.59560547 6.39462891 -2.59560547 6.39462891 -3.39453125 7.37109375 C-5 9 -5 9 -8 10 C-6.5682479 4.98886765 -4.01554307 3.05530451 0 0 Z " fill="#B7A460" transform="translate(82,60)"/>
<path d="M0 0 C1.21236328 0.04060547 1.21236328 0.04060547 2.44921875 0.08203125 C3.06410156 0.11683594 3.67898437 0.15164062 4.3125 0.1875 C4.3125 0.5175 4.3125 0.8475 4.3125 1.1875 C1.6725 1.5175 -0.9675 1.8475 -3.6875 2.1875 C-3.6875 3.1775 -3.6875 4.1675 -3.6875 5.1875 C-5.3375 5.8475 -6.9875 6.5075 -8.6875 7.1875 C-7.75422802 1.77452251 -5.49696006 -0.23899826 0 0 Z " fill="#32556E" transform="translate(80.6875,46.8125)"/>
<path d="M0 0 C-0.33 0.66 -0.66 1.32 -1 2 C-2.65 2 -4.3 2 -6 2 C-6.268125 2.639375 -6.53625 3.27875 -6.8125 3.9375 C-8 6 -8 6 -11 7 C-11 4 -11 4 -9.4375 1.8125 C-6.19051375 -0.60192567 -3.94884357 -0.3037572 0 0 Z " fill="#2F536D" transform="translate(87,37)"/>
<path d="M0 0 C0.66 0.33 1.32 0.66 2 1 C1.67 2.98 1.34 4.96 1 7 C0.67 6.34 0.34 5.68 0 5 C-2.02463255 4.34786708 -2.02463255 4.34786708 -4 4 C-4 3.34 -4 2.68 -4 2 C-2.68 2 -1.36 2 0 2 C0 1.34 0 0.68 0 0 Z " fill="#E7E1C7" transform="translate(120,94)"/>
</svg>
